<?xml version="1.0" encoding="utf-8"?>
<!-- Generator: Adobe Illustrator 24.0.2, SVG Export Plug-In . SVG Version: 6.00 Build 0)  -->
<svg version="1.1" id="Capa_1" xmlns="http://www.w3.org/2000/svg" xmlns:xlink="http://www.w3.org/1999/xlink" x="0px" y="0px"
	 viewBox="0 0 152.1 188.6" style="enable-background:new 0 0 152.1 188.6;" xml:space="preserve">
<style type="text/css">
	.st0{fill:#9C9E9F;}
	.st1{fill:#99032E;}
	.st2{clip-path:url(#SVGID_2_);}
	.st3{opacity:0.3;}
	.st4{fill-rule:evenodd;clip-rule:evenodd;}
	.st5{fill-rule:evenodd;clip-rule:evenodd;fill:#D59C98;}
	.st6{fill:#FFFFFF;}
</style>
<g>
	<g>
		<g>
			<path class="st0" d="M14.1,149.6c0.7,2.3,1.2,3.5,2,5.7c0.8,2.1,2.8,6.7,3,7.4c0.4,1,0.8,1.4,2.1,1.7c0.1,0-0.1,0.6-0.1,0.7
				c-1.8,0-2.3,0-3,0c-0.8,0-1.3,0.1-1.5,0.1c-0.1,0-0.1,0-0.2-0.1c-0.1-0.1-0.1-0.5-0.1-0.6c1.3-0.4,1.4-0.5,1.1-1.6
				c-0.2-0.4-0.9-2.2-1.2-3.1c0-0.1-0.2-0.3-0.4-0.3c-1.9,0-3.8,0-5.2,0.1c-0.3,0-0.4,0-0.6,0.4c-0.2,0.5-1.1,2.7-1.1,3.3
				c0,0.5,0.1,0.7,1.3,1.1c0,0.1-0.1,0.5-0.2,0.6c-1,0-2.4,0-2.9,0c-0.4,0-0.8,0-0.9,0c-0.1,0-0.1,0-0.2,0C6,164.8,6,164.4,6,164.3
				c0.9-0.3,1.2-0.7,1.8-1.9c0.7-1.3,3.4-8,4.8-11.3c0.3-0.7,0.4-1,0.5-1.4c0-0.1,0-0.1,0.1-0.2c0.1,0,0.4-0.2,0.6-0.2
				S14,149.4,14.1,149.6z M12.9,158.6c1.2,0,1.9,0,2.6-0.1c0.1,0,0.2-0.2,0.1-0.3c-0.9-2.4-1.4-3.8-2.2-6c0-0.1-0.2,0-0.3,0.1
				c-1.2,2.8-1.5,3.5-2.4,5.9c0,0.1,0.1,0.3,0.4,0.3C11.2,158.5,11.7,158.6,12.9,158.6z"/>
			<path class="st0" d="M36.3,162.3c-1.7,1.5-2.7,2.1-4,2.4c-1.2,0.4-2,0.4-3.7,0.4c-1.2,0-3.6-0.1-4.1-0.1c-0.4,0-1.3,0-1.5,0
				c0,0-0.1-0.6-0.1-0.7c1.1-0.3,1.3-0.5,1.4-0.9c0.1-2,0.1-5.9,0.1-8.7c0-2.7,0-3.2-0.1-3.5c0-0.3-0.2-0.5-1.3-0.6
				c0,0-0.1-0.1-0.1-0.2l0-0.5c0.9,0,1.5,0,2.7-0.1c1.6,0,2.5-0.1,3.6-0.1c1.7,0,4.8,0.2,6.9,2.2c1.7,1.5,2.6,3.5,2.6,5.6
				C38.6,158.6,38,160.7,36.3,162.3z M26.4,150.9c-0.1,0.1-0.1,0.2-0.2,0.5c-0.1,1.1-0.2,3.3-0.2,5.2c0,3.5,0,5.9,0.4,7.1
				c0,0.2,0.1,0.3,0.4,0.4c0.5,0.2,1.4,0.4,2.2,0.4c1.2,0,2.7-0.2,4.5-1.3c2-1.3,3-3.5,3-5.9c0-2.5-1.2-4.2-2.2-5.1
				c-1.6-1.5-3.7-1.7-5-1.7C28.2,150.4,26.6,150.7,26.4,150.9z"/>
			<path class="st0" d="M55.4,150.5c-0.2,0-0.4,0-0.5,0.2c-0.2,0.3-0.6,0.8-1.4,2.6c-0.6,1.3-3.2,7.2-4.4,10
				c-0.1,0.3-0.3,0.5-0.4,0.8c-0.2,0.3-0.4,0.8-0.6,1.2c0,0.1-0.1,0.2-0.2,0.2c-0.2,0-0.4,0-0.4-0.2s0-0.2-0.8-2.1
				c-2.2-5.3-3.8-9.1-4.6-10.7c-0.9-1.9-0.9-1.9-2.3-2l0.2-0.6c0-0.1,0.1-0.1,0.2-0.1c0.5,0,1.5,0.1,2.2,0.1c0.7,0,1.3,0,1.9,0
				c0.1,0,0.1,0,0,0.4c0,0.2-0.1,0.2-0.2,0.3c-0.8,0.1-1,0.3-0.8,0.7c0.1,0.4,0.6,1.6,1.8,4.3c1,2.3,2.4,5.5,3.1,7
				c0,0.1,0.2,0.1,0.2,0c0.6-1.2,2-4.5,3.3-7.5c1.1-2.6,1.3-3.1,1.6-4c0.1-0.2-0.2-0.2-0.8-0.3l-0.7,0c-0.1,0-0.2,0-0.1-0.2
				c0.2-0.5,0.2-0.6,0.5-0.6c0.5,0,1.3,0,2,0c0.8,0,1.3,0,1.8,0c0.2,0,0.2,0.1,0.3,0.6c0,0.1,0,0.2-0.2,0.2L55.4,150.5z"/>
			<path class="st0" d="M73.4,157c0,2.9-1.5,5-2.6,6.3c-1.6,1.6-3.7,2.1-5,2.1c-2.4,0-5.1-1.1-6.7-2.9c-1.2-1.3-2-3.4-2-5.3
				c0-2,0.8-4.1,2.7-5.7c1.5-1.3,3.5-2.1,5.5-2.1C69.5,149.3,73.4,152.7,73.4,157z M60.9,151.9c-1.3,1.5-1.7,3.8-1.7,5
				c0,2.1,0.8,4.1,2.1,5.4c1.6,1.6,3.2,2.2,4.8,2.2c2.6,0,5.3-2,5.3-6.5c0-2.1-0.6-4.1-2.3-5.9c-1-1.1-2.6-1.9-4.6-1.9
				C63.4,150.1,62.2,150.5,60.9,151.9z"/>
			<path class="st0" d="M77.9,151.9c1.2-1.3,2.8-1.8,4.1-2.2c1-0.3,2.5-0.4,3.5-0.4c1.1,0,2.4,0.3,3,0.5c0.3,0.1,0.4,0,1-0.2
				c0,0,0.1,0,0.2,0c0.3,0.1,0.3,0.1,0.3,0.2c-0.5,0.9-0.5,2.2-0.4,3.4c0,0-0.3,0.1-0.4,0.1c-0.3,0.1-0.3,0.1-0.4,0
				c-0.1-0.4-0.3-1-0.4-1.5c-0.2-0.4-0.3-0.6-0.7-0.9c-0.4-0.3-1.6-0.8-3.3-0.8c-1.7,0-3.4,0.7-4.7,2.2c-0.8,1-1.6,2.7-1.6,5.2
				s1.4,6.9,6.9,6.9c1.7,0,2.6-0.6,3.4-1.3c0.7-0.6,1-1.2,1.2-1.7c0-0.1,0.1-0.2,0.2-0.1c0.2,0.1,0.4,0.4,0.3,0.5
				c-0.3,1-0.9,2.3-1.1,2.8c-0.1,0.2-0.3,0.3-0.4,0.3c-0.8,0-2.7,0.4-3.8,0.4c-6.2,0-8.7-4.2-8.7-7.9
				C75.8,155.8,76.3,153.7,77.9,151.9z"/>
			<path class="st0" d="M99.5,149.6c0.7,2.3,1.2,3.5,2,5.7c0.8,2.1,2.8,6.7,3,7.4c0.4,1,0.8,1.4,2.1,1.7c0.1,0-0.1,0.6-0.1,0.7
				c-1.8,0-2.3,0-3,0c-0.8,0-1.3,0.1-1.5,0.1c-0.1,0-0.1,0-0.2-0.1c-0.1-0.1-0.1-0.5-0.1-0.6c1.3-0.4,1.4-0.5,1.1-1.6
				c-0.2-0.4-0.9-2.2-1.2-3.1c0-0.1-0.2-0.3-0.4-0.3c-1.9,0-3.8,0-5.2,0.1c-0.3,0-0.4,0-0.6,0.4c-0.2,0.5-1.1,2.7-1.1,3.3
				c0,0.5,0.1,0.7,1.3,1.1c0,0.1-0.1,0.5-0.2,0.6c-1,0-2.4,0-2.9,0c-0.4,0-0.8,0-0.9,0c-0.1,0-0.1,0-0.2,0c-0.1-0.2-0.1-0.6-0.1-0.7
				c0.9-0.3,1.2-0.7,1.8-1.9c0.7-1.3,3.4-8,4.8-11.3c0.3-0.7,0.4-1,0.5-1.4c0-0.1,0-0.1,0.1-0.2c0.1,0,0.4-0.2,0.6-0.2
				S99.4,149.4,99.5,149.6z M98.2,158.6c1.2,0,1.9,0,2.6-0.1c0.1,0,0.2-0.2,0.1-0.3c-0.9-2.4-1.4-3.8-2.2-6c0-0.1-0.2,0-0.3,0.1
				c-1.2,2.8-1.5,3.5-2.4,5.9c0,0.1,0.1,0.3,0.4,0.3C96.5,158.5,97,158.6,98.2,158.6z"/>
			<path class="st0" d="M110.4,164.4c0.4,0,1-0.1,1.4-0.2c0.7-0.1,0.9-0.3,1-0.8c0.1-0.4,0.2-1.9,0.2-5.4v-2.4c0-4.3,0-5.1-0.1-5.1
				h-2.2c-2.2,0-3.1,0.4-3.3,0.5c-0.3,0.2-0.5,0.6-0.8,1.5c0,0.1-0.1,0.1-0.2,0c-0.2-0.1-0.5-0.4-0.6-0.5c0.4-0.7,0.8-1.7,1.3-3.4
				c0.1,0,0.3,0,0.4,0.1c0.2,0,0.2,0,0.2,0.1c0,0.4,0,0.6,0.2,0.6c0.2,0,0.5,0.1,1.1,0.1c0.7,0,1.6,0,3.8,0c2.5,0,4.6,0,6,0
				c0.7,0,1.1-0.1,1.4-0.1c0.1,0,0.2-0.2,0.4-0.7c0-0.1,0-0.1,0.1-0.1c0.1,0,0.4,0.1,0.6,0.2c0,0,0,0.1,0,0.3
				c-0.5,1.2-0.5,1.8-0.6,3.1c0,0.1-0.1,0.2-0.3,0.2c-0.1,0-0.3,0-0.4,0c-0.1,0-0.1-0.1-0.1-0.1c0-0.2,0-1,0-1.2
				c0-0.1-0.1-0.4-0.4-0.4c-0.2-0.1-1.3-0.3-3-0.3H115c-0.2,0-0.2,0.1-0.3,0.7c0,0.4-0.1,1.5-0.1,4.7v2.3c0,3.5,0.1,4.4,0.2,4.9
				c0.1,0.4,0.2,0.7,0.5,0.8c0.4,0.3,1.5,0.4,2,0.4c0.1,0,0.1,0,0.1,0l-0.1,0.5c0,0.1,0,0.1-0.2,0.1c-0.1,0-2.3-0.1-3.4-0.1
				c-1.1,0-2.8,0.1-3,0.1c-0.2,0-0.3-0.1-0.3-0.2L110.4,164.4z"/>
			<path class="st0" d="M123.3,165.3c-0.1-0.2-0.1-0.5-0.2-0.8c0-1.2-0.2-2.4-0.4-3.4c-0.1-0.1,0-0.2,0.1-0.2c0.1,0,0.4-0.1,0.5-0.1
				c0.1,0,0.1,0,0.2,0.3c0.1,0.4,0.2,1,0.7,1.6c0.7,1.1,2.3,1.9,3.9,1.9c2.2,0,3.7-1.4,3.7-3.4c0-0.8-0.4-1.5-1-2
				c-0.5-0.4-1.1-0.7-3.2-1.5c-1.6-0.6-2.8-1.1-3.5-1.9c-0.5-0.5-0.9-1.6-0.9-2.3c0-1.7,0.8-2.8,1.9-3.4c0.6-0.3,1.9-0.8,3.4-0.8
				c0.7,0,1.9,0.1,2.3,0.2c0.3,0.1,0.5,0.1,0.6,0.1c0.1,0,0.4-0.2,0.6-0.5c0.2,0,0.5,0,0.5,0c-0.1,1.3,0,2.4,0.2,3.6
				c0,0.1,0,0.2-0.1,0.3c0,0-0.4,0.2-0.5,0.2c-0.1,0-0.1,0-0.1-0.1c-0.2-0.8-0.4-1.6-1-2.1c-0.5-0.5-1.7-0.9-3-0.9
				c-1.9,0-3.1,1.2-3.1,2.8c0,0.8,0.3,1.4,0.6,1.7c0.6,0.6,1.3,1,3.2,1.7c1.7,0.6,2.8,1.1,3.5,1.8c0.9,0.8,1.2,1.7,1.2,2.8
				c0,1.7-0.8,3-2,3.6c-1,0.5-3.1,0.8-3.8,0.8c-1.1,0-2.1-0.2-3.1-0.4c-0.2,0-0.3,0-0.4,0c-0.1,0.1-0.3,0.2-0.5,0.3
				c-0.1,0.1-0.2,0.1-0.3,0.1C123.5,165.5,123.4,165.5,123.3,165.3z"/>
			<path class="st0" d="M147.3,150.3c-2.1,0.2-2.4,0.3-2.4,0.8c-0.1,0.4-0.2,1.3-0.2,4.2v5c0,1.3,0,2.3,0.1,3c0,0.6,0.2,0.7,0.6,0.8
				c0.3,0,1.1,0.1,1.2,0.1c0.2,0,0.3,0.1,0.3,0.1c0,0.2-0.2,0.6-0.2,0.6c-2,0-2.9-0.1-3.8,0c-0.8,0-2,0.1-2,0.1
				c-0.1,0-0.3-0.1-0.3-0.2c-0.1-0.3-0.1-0.4-0.1-0.6c1.8,0,2.3-0.1,2.3-0.8c0-0.4,0.1-1.2,0.1-3.7V154c0-3,0-3.3-0.8-3.4
				c-0.2,0-0.6-0.1-1.3-0.1c-0.1,0-0.1-0.1-0.1-0.1c0-0.1,0-0.1,0.1-0.3s0.1-0.2,0.2-0.3c0.2,0,0.3,0,0.6,0c0.2,0,1.1,0,2.1,0
				c1.2,0,2.9,0,3.1,0c0.3,0,0.3,0,0.4,0.1L147.3,150.3z"/>
		</g>
		<g>
			<path class="st0" d="M10.7,176.1c0.9,0,1.6,0,2.1-0.1c1.2-0.1,1.3-0.1,1.5-1.3c0.1-0.1,0.6-0.1,0.6-0.1c0,0.6-0.2,1.4-0.2,2
				c0,0.7,0.1,1.2,0.1,1.8c-0.2,0-0.3,0.1-0.5,0.1c-0.1,0-0.1,0-0.1-0.1c-0.1-0.2-0.2-0.5-0.2-0.7c-0.1-0.6-0.3-0.7-1.2-0.8
				c-0.4,0-1.1,0-2.2,0c-1.1,0-1.3,0-1.4,0c-0.1,0-0.1,0-0.2,0.1c-0.1,0.1-0.2,0.7-0.2,2.3c0,1.5,0,2.1,0.2,2.4
				c0.3,0.4,0.8,0.5,2.7,0.5c2.4,0,3.5-0.2,4.1-2.2c0.1,0,0.2,0,0.4,0c0.1,0,0.1,0,0.1,0.1c0,0.8-0.3,2-0.6,2.6
				c-0.1,0.1-0.2,0.2-0.3,0.2c-0.2,0-0.3,0-0.9,0c-0.6,0-2,0-3.6,0c-1.5,0-2.9,0.1-4.6,0.1c0,0,0-0.5,0-0.6c0,0,0.1-0.1,0.1-0.1
				c0.9-0.1,0.9-0.3,1-0.6c0-0.3,0.1-1.6,0.1-3.6v-3.1c0-2.9-0.1-3.9-0.1-4c0-0.1-0.1-0.2-0.3-0.2c-0.2-0.1-0.6-0.1-1-0.3
				c0,0,0,0,0-0.1l0-0.5c0-0.1,0-0.1,0.1-0.1H7c0.6,0,1.3,0,2.4,0h2c1.1,0,2.6-0.1,3.5-0.1c0.3,0,0.4,0,0.5,0.1
				c0.2,0.1,0.2,0.1,0.1,0.5c-0.1,0.8-0.2,2-0.2,2.5c-0.5,0-0.6-0.1-0.6-0.2c-0.2-1.4-0.3-2.2-2-2.2h-1.5c-1.2,0-1.9,0-2.1,0.1
				C9.1,171,9,171.1,9,171.6c0,1.4,0,2.8,0,4.2c0,0.1,0.1,0.3,0.3,0.3H10.7z"/>
			<path class="st0" d="M19.6,172c1-1.1,2.3-1.5,3.4-1.8c0.8-0.2,2.1-0.4,2.9-0.4c0.9,0,2,0.2,2.5,0.5c0.3,0.1,0.3,0,0.8-0.2
				c0,0,0.1,0,0.2,0c0.2,0.1,0.3,0.1,0.3,0.1c-0.4,0.8-0.4,1.9-0.3,2.9c0,0-0.2,0.1-0.3,0.1c-0.2,0.1-0.3,0.1-0.3,0
				c-0.1-0.4-0.2-0.9-0.3-1.3c-0.1-0.4-0.2-0.5-0.6-0.8c-0.3-0.2-1.3-0.7-2.8-0.7c-1.5,0-2.9,0.6-4,1.9c-0.7,0.8-1.4,2.3-1.4,4.4
				c0,2.1,1.2,5.8,5.8,5.8c1.5,0,2.2-0.5,2.8-1.1c0.6-0.5,0.8-1,1-1.5c0-0.1,0.1-0.1,0.1-0.1c0.2,0.1,0.3,0.3,0.3,0.4
				c-0.2,0.8-0.7,2-1,2.3c-0.1,0.2-0.2,0.2-0.3,0.2c-0.6,0-2.2,0.3-3.2,0.3c-5.2,0-7.3-3.5-7.3-6.6C17.9,175.3,18.2,173.5,19.6,172z
				"/>
			<path class="st0" d="M44.8,176.3c0,2.4-1.2,4.2-2.2,5.3c-1.3,1.4-3.1,1.8-4.2,1.8c-2.1,0-4.3-1-5.6-2.4c-1-1.1-1.7-2.9-1.7-4.5
				c0-1.7,0.7-3.4,2.2-4.8c1.2-1.1,2.9-1.8,4.6-1.8C41.6,169.8,44.8,172.7,44.8,176.3z M34.3,172c-1.1,1.2-1.4,3.2-1.4,4.2
				c0,1.8,0.7,3.4,1.8,4.5c1.4,1.3,2.7,1.9,4,1.9c2.2,0,4.5-1.7,4.5-5.5c0-1.8-0.5-3.5-1.9-5c-0.8-0.9-2.2-1.6-3.9-1.6
				C36.4,170.5,35.4,170.8,34.3,172z"/>
			<path class="st0" d="M46,170.1c0.9,0,1.3,0.1,2.6,0.1c0.1,0,0.2,0,0.2,0.1c0.1,0,0.2,0.2,0.3,0.4c0.2,0.2,0.8,1.1,1.3,1.6
				c1.2,1.3,4.3,4.3,8.3,8.1c0-0.6,0-2.7,0-4.2c0-2.1,0-3.1-0.1-4.2c0-0.3-0.1-0.8-0.5-1c-0.2-0.1-0.7-0.1-1.2-0.2
				c0,0-0.1,0-0.1-0.1l0-0.6H59c0.8,0,1.5-0.1,2.2-0.1c0.1,0,0.1,0,0.2,0.1l0.1,0.4c-0.7,0.2-1,0.2-1.3,0.5
				c-0.4,0.2-0.5,0.8-0.6,3.6c0,1.7-0.1,3-0.1,5.9c0,1.1,0.1,2.3,0.1,2.6c0,0-0.1,0.1-0.3,0.2c-0.1,0-0.2,0-0.3-0.1
				c-1.2-1.8-3.2-3.7-5.2-5.7c-1.5-1.5-3.1-3-4.9-4.9c-0.1,1.2-0.1,2.7-0.1,3.8c0,2,0,4.5,0.3,5.2c0.1,0.4,0.6,0.6,1.6,0.8l0.1,0.5
				c0,0.1-0.1,0.1-0.2,0.1c-0.9,0-1.7-0.1-2.5-0.1c-0.7,0-1.3,0.1-1.6,0.1l-0.2-0.5c1.2-0.3,1.3-0.6,1.4-1.2
				c0.1-0.5,0.3-2.3,0.3-5.4v-2.2c0-1.9,0-2.2-0.4-2.5c-0.3-0.3-0.6-0.5-1.5-0.6c-0.1,0-0.1-0.1-0.1-0.1V170.1z"/>
			<path class="st0" d="M76.5,176.3c0,2.4-1.2,4.2-2.2,5.3c-1.3,1.4-3.1,1.8-4.2,1.8c-2.1,0-4.3-1-5.6-2.4c-1-1.1-1.7-2.9-1.7-4.5
				c0-1.7,0.7-3.4,2.2-4.8c1.2-1.1,2.9-1.8,4.6-1.8C73.2,169.8,76.5,172.7,76.5,176.3z M66,172c-1.1,1.2-1.4,3.2-1.4,4.2
				c0,1.8,0.7,3.4,1.8,4.5c1.4,1.3,2.7,1.9,4,1.9c2.2,0,4.5-1.7,4.5-5.5c0-1.8-0.5-3.5-1.9-5c-0.8-0.9-2.2-1.6-3.9-1.6
				C68.1,170.5,67.1,170.8,66,172z"/>
			<path class="st0" d="M81.9,183.1c-1.2-0.1-2.4-0.1-3.7-0.1c-0.1,0-0.2,0-0.2-0.1c-0.1-0.1-0.1-0.5,0-0.5c1-0.1,1.3-0.3,1.4-1.2
				c0.1-1.2,0.2-3.5,0.3-6l0.1-3.6c0-0.6-0.1-0.8-1.8-0.9c0-0.1,0.1-0.5,0.2-0.6c0-0.1,0.1-0.1,0.3-0.1c0.5,0,1.5,0.1,2,0.1
				c0.3,0,0.6,0,0.9,0c0,0.3,0.1,0.6,0.1,0.7c0.9,2.2,3.6,7.3,4.9,9.2c0,0,0.1,0,0.2-0.1c1.4-2.7,3.4-6.6,4.7-9.2
				c0-0.1,0.1-0.3,0.1-0.7c1.5,0,2.2-0.1,3.2-0.1c0.1,0.1,0.1,0.5,0.1,0.6c-1.4,0.1-1.7,0.3-1.7,0.9c0,0.6,0,2,0,4.7
				c0,2.4,0,3.7,0,4.5c0.1,1.4,0.2,1.4,1.4,1.6c0.1,0,0.1,0.3,0.1,0.5c0,0.1,0,0.2-0.1,0.2H93c-0.6,0-2,0-2.9,0.1l0-0.4
				c0-0.2,0-0.2,0.1-0.2c0.9-0.2,0.9-0.3,1-1c0.1-0.6,0.1-1.4,0.2-9.6c0-0.1-0.1-0.1-0.1-0.1c-0.3,0.6-2.5,5.3-3.6,7.5
				c-1,2-1.4,2.8-1.4,3.1c-0.3,0.5-0.3,0.6-0.4,0.6c-0.1,0-0.2-0.1-0.2-0.2c-0.1-0.2-0.6-1.1-0.8-1.7c-2-4.2-3.7-7.8-4.5-9.2
				c0,1.4,0,4.4,0,6.6c0,2.2,0.1,3,0.1,3.3c0.1,0.3,0.4,0.4,0.9,0.5c0.3,0,0.3,0.1,0.4,0.3L81.9,183.1z"/>
			<path class="st0" d="M101.4,170.7c-1.8,0.2-2,0.3-2.1,0.7c-0.1,0.4-0.1,1.1-0.1,3.5v4.2c0,1.1,0,1.9,0.1,2.6
				c0,0.5,0.2,0.6,0.5,0.7c0.2,0,0.9,0.1,1,0.1c0.2,0,0.2,0.1,0.2,0.1c0,0.2-0.1,0.5-0.2,0.5c-1.7,0-2.5-0.1-3.2,0
				c-0.7,0-1.7,0.1-1.7,0.1c-0.1,0-0.2-0.1-0.2-0.2c-0.1-0.2-0.1-0.4-0.1-0.5c1.5,0,1.9-0.1,2-0.7c0-0.3,0.1-1,0.1-3.1v-5
				c0-2.6,0-2.8-0.7-2.9c-0.2,0-0.5-0.1-1.1-0.1c-0.1,0-0.1-0.1-0.1-0.1c0-0.1,0-0.1,0.1-0.3c0.1-0.2,0.1-0.2,0.2-0.2
				c0.2,0,0.3,0,0.5,0c0.2,0,0.9,0,1.7,0c1,0,2.4,0,2.6,0c0.3,0,0.3,0,0.3,0.1L101.4,170.7z"/>
			<path class="st0" d="M103.1,183.3c-0.1-0.1-0.1-0.4-0.1-0.7c0-1-0.2-2-0.3-2.9c-0.1-0.1,0-0.2,0.1-0.2c0.1,0,0.3-0.1,0.5-0.1
				c0.1,0,0.1,0,0.2,0.2c0.1,0.3,0.2,0.8,0.6,1.3c0.6,0.9,1.9,1.6,3.3,1.6c1.9,0,3.1-1.2,3.1-2.9c0-0.7-0.3-1.3-0.8-1.7
				c-0.4-0.4-1-0.6-2.7-1.2c-1.4-0.5-2.3-0.9-2.9-1.6c-0.4-0.4-0.7-1.3-0.7-1.9c0-1.5,0.7-2.3,1.6-2.9c0.5-0.3,1.6-0.7,2.9-0.7
				c0.6,0,1.6,0.1,2,0.2c0.3,0.1,0.5,0.1,0.5,0.1c0.1,0,0.3-0.2,0.5-0.4c0.2,0,0.4,0,0.4,0c-0.1,1.1,0,2.1,0.2,3.1
				c0,0.1,0,0.2-0.1,0.2c0,0-0.3,0.2-0.5,0.2c-0.1,0-0.1,0-0.1-0.1c-0.2-0.7-0.3-1.3-0.9-1.8c-0.4-0.4-1.4-0.8-2.5-0.8
				c-1.6,0-2.6,1-2.6,2.4c0,0.7,0.3,1.2,0.5,1.5c0.5,0.5,1.1,0.9,2.7,1.4c1.4,0.5,2.3,1,2.9,1.5c0.8,0.7,1,1.5,1,2.4
				c0,1.4-0.7,2.5-1.7,3c-0.8,0.5-2.6,0.7-3.2,0.7c-0.9,0-1.7-0.2-2.6-0.3c-0.2,0-0.3,0-0.4,0c-0.1,0.1-0.3,0.2-0.4,0.3
				c-0.1,0.1-0.2,0.1-0.2,0.1C103.3,183.4,103.2,183.4,103.1,183.3z"/>
			<path class="st0" d="M117,182.5c0.3,0,0.8-0.1,1.1-0.2c0.6-0.1,0.8-0.2,0.8-0.6c0.1-0.3,0.2-1.6,0.2-4.6v-2c0-3.6,0-4.3-0.1-4.3
				h-1.8c-1.9,0-2.6,0.3-2.8,0.4c-0.3,0.2-0.4,0.5-0.7,1.3c0,0.1-0.1,0.1-0.2,0c-0.1-0.1-0.5-0.4-0.5-0.4c0.3-0.6,0.7-1.4,1.1-2.8
				c0.1,0,0.2,0,0.4,0.1c0.1,0,0.2,0,0.2,0.1c0,0.3,0,0.5,0.2,0.5c0.2,0,0.5,0.1,0.9,0.1c0.6,0,1.4,0,3.2,0c2.1,0,3.9,0,5.1,0
				c0.6,0,0.9-0.1,1.1-0.1c0.1,0,0.2-0.2,0.3-0.6c0-0.1,0-0.1,0.1-0.1c0.1,0,0.4,0.1,0.5,0.2c0,0,0,0.1,0,0.2
				c-0.4,1-0.4,1.5-0.5,2.6c0,0.1-0.1,0.2-0.2,0.2c-0.1,0-0.2,0-0.3,0c-0.1,0-0.1-0.1-0.1-0.1c0-0.2,0-0.8,0-1
				c0-0.1-0.1-0.3-0.3-0.4c-0.2-0.1-1.1-0.2-2.5-0.2h-1.5c-0.2,0-0.2,0.1-0.2,0.6c0,0.3-0.1,1.3-0.1,3.9v2c0,2.9,0.1,3.7,0.1,4.1
				c0.1,0.3,0.2,0.6,0.4,0.7c0.4,0.2,1.3,0.3,1.7,0.4c0.1,0,0.1,0,0.1,0l-0.1,0.4c0,0.1,0,0.1-0.1,0.1c-0.1,0-1.9-0.1-2.9-0.1
				c-0.9,0-2.4,0.1-2.5,0.1c-0.2,0-0.2-0.1-0.3-0.2L117,182.5z"/>
			<path class="st0" d="M132.2,176.1c0.9,0,1.6,0,2.1-0.1c1.2-0.1,1.3-0.1,1.5-1.3c0.1-0.1,0.6-0.1,0.6-0.1c0,0.6-0.2,1.4-0.2,2
				c0,0.7,0.1,1.2,0.1,1.8c-0.2,0-0.3,0.1-0.5,0.1c-0.1,0-0.1,0-0.1-0.1c-0.1-0.2-0.2-0.5-0.2-0.7c-0.1-0.6-0.3-0.7-1.2-0.8
				c-0.4,0-1.1,0-2.2,0c-1.1,0-1.3,0-1.4,0c-0.1,0-0.1,0-0.2,0.1c-0.1,0.1-0.2,0.7-0.2,2.3c0,1.5,0,2.1,0.2,2.4
				c0.3,0.4,0.8,0.5,2.7,0.5c2.4,0,3.5-0.2,4.1-2.2c0.1,0,0.2,0,0.4,0c0.1,0,0.1,0,0.1,0.1c0,0.8-0.3,2-0.6,2.6
				c-0.1,0.1-0.2,0.2-0.3,0.2c-0.2,0-0.3,0-0.9,0c-0.6,0-2,0-3.6,0c-1.5,0-2.9,0.1-4.6,0.1c0,0,0-0.5,0-0.6c0,0,0.1-0.1,0.1-0.1
				c0.9-0.1,0.9-0.3,1-0.6c0-0.3,0.1-1.6,0.1-3.6v-3.1c0-2.9-0.1-3.9-0.1-4c0-0.1-0.1-0.2-0.3-0.2c-0.2-0.1-0.6-0.1-1-0.3
				c0,0,0,0,0-0.1l0-0.5c0-0.1,0-0.1,0.1-0.1h0.7c0.6,0,1.3,0,2.4,0h2c1.1,0,2.6-0.1,3.5-0.1c0.3,0,0.4,0,0.5,0.1
				c0.2,0.1,0.2,0.1,0.1,0.5c-0.1,0.8-0.2,2-0.2,2.5c-0.5,0-0.6-0.1-0.6-0.2c-0.2-1.4-0.3-2.2-2-2.2h-1.5c-1.2,0-1.9,0-2.1,0.1
				c-0.2,0.1-0.3,0.2-0.3,0.7c0,1.4,0,2.8,0,4.2c0,0.1,0.1,0.3,0.3,0.3H132.2z"/>
			<path class="st0" d="M139.8,183.3c-0.1-0.1-0.1-0.4-0.1-0.7c0-1-0.2-2-0.3-2.9c-0.1-0.1,0-0.2,0.1-0.2c0.1,0,0.3-0.1,0.5-0.1
				c0.1,0,0.1,0,0.2,0.2c0.1,0.3,0.2,0.8,0.6,1.3c0.6,0.9,1.9,1.6,3.3,1.6c1.9,0,3.1-1.2,3.1-2.9c0-0.7-0.3-1.3-0.8-1.7
				c-0.4-0.4-1-0.6-2.7-1.2c-1.4-0.5-2.3-0.9-2.9-1.6c-0.4-0.4-0.7-1.3-0.7-1.9c0-1.5,0.7-2.3,1.6-2.9c0.5-0.3,1.6-0.7,2.9-0.7
				c0.6,0,1.6,0.1,2,0.2c0.3,0.1,0.5,0.1,0.5,0.1c0.1,0,0.3-0.2,0.5-0.4c0.2,0,0.4,0,0.4,0c-0.1,1.1,0,2.1,0.2,3.1
				c0,0.1,0,0.2-0.1,0.2c0,0-0.3,0.2-0.5,0.2c-0.1,0-0.1,0-0.1-0.1c-0.2-0.7-0.3-1.3-0.9-1.8c-0.4-0.4-1.4-0.8-2.5-0.8
				c-1.6,0-2.6,1-2.6,2.4c0,0.7,0.3,1.2,0.5,1.5c0.5,0.5,1.1,0.9,2.7,1.4c1.4,0.5,2.3,1,2.9,1.5c0.8,0.7,1,1.5,1,2.4
				c0,1.4-0.7,2.5-1.7,3c-0.8,0.5-2.6,0.7-3.2,0.7c-0.9,0-1.7-0.2-2.6-0.3c-0.2,0-0.3,0-0.4,0c-0.1,0.1-0.3,0.2-0.4,0.3
				c-0.1,0.1-0.2,0.1-0.2,0.1C139.9,183.4,139.8,183.4,139.8,183.3z"/>
		</g>
	</g>
	<rect x="6.1" y="7.3" class="st1" width="141" height="138.4"/>
	<g>
		<defs>
			<rect id="SVGID_1_" x="14.1" y="52.7" width="108.3" height="85.3"/>
		</defs>
		<use xlink:href="#SVGID_1_"  style="overflow:visible;fill:#FFFFFF;"/>
		<clipPath id="SVGID_2_">
			<use xlink:href="#SVGID_1_"  style="overflow:visible;"/>
		</clipPath>
		<g class="st2">
			<g class="st3">
				<path class="st4" d="M13.9,111.4c1.3-0.8,1.9,0.2,2.1-1.6c-1.2,0-2,0.2-2.2,1.4c-4.5,0-4.1,1.7-2.4-5.2
					c1.9-3.2,10.8-27.1,16.2-22.5c0.5,1.2,6.2,2.2,7.1,6.4c2.8,6.2,8.7,18.1,6.4,24.9c-1,0-3.5-6.8-4.7-4.2c-2.1,0-6-14.6-8.1-16.7
					c-0.9-4.5-2.7,5.9-4.8,8c-2.9,5.5-7.5,9.1,1.5,9.4c0.6,0.2,7.9,1.1,3.2,1.6c-4.3,0,2.1,1.4,2,2.3
					C27.1,115.3,12.8,117.4,13.9,111.4z"/>
				<path class="st4" d="M119.7,88.8c-2.6-1.6-1.1-7.7-1.4-7.4c-6.8-0.6,1.3-2.2,3.1-3.9c9-2.2-11-18.8-9.6-6
					c-0.3,0.9-0.4,1.9-0.5,2.9c-2.9,2.9-16.3-3.6-19.5-5.2c-2.1-1.5-17.4-5.4-10.3-5.4c5.8-2.5-9.6-15.8-12.2-5.8
					c-5,2,1.8,5.8,1.8,6.9C63,65.7,52.8,68,45.6,72.5C43.6,73,31,79.3,31,74.2c3.4-2.7,4.4-4.7-0.3-8.3c-9.4-3.9-14.7,15.8-4,15.8
					c1.2,1.9,10,2.9,10,0.2c-0.6-0.6-1.1-0.9-1.6-1c-2.8,1.6-2-0.6,0,0c0.2-0.1,0.4-0.3,0.7-0.4c5.4-1,31.6-13.9,34.3-11.3
					c-1.9,1.9-1.4,26.9-2.5,31.2c0,3.6-1.5,14.1,1.2,16.8c0.3,1.8-8.3,2.4-8.3,5.9c4.8,3.2-9.4,6-10.3,7.7c0.8,2.3-3.2,6-5.5,6
					c-4.6,4.6,10.6,4.8,12.8,4.6c10.7-5.3,27.3,1.6,37.4-3.5c4.1-0.7-6.1-5.2-0.6-5.7c8.4-9.3-14.6-1.3-14.6-5.5
					c0.6,0,2.1,0,2.5-0.3c0.8-7.6-2.5-9.1-9.7-9.1c0.4-3.1,3.4,1.1,4.9-3.5c-1.4-5.1-0.3-27.9-1.1-28.8c0.2-2.3-0.5-19.2,2.8-15.8
					c10.5,1.5,19.1,10,30.5,10c4.5,0.8-0.9,1.3-1.1,4.2c-4.4,6-9.5,15.7-11.1,23.1c-0.8,1.2-2.3,9.2-0.2,5.8
					c0.2-0.1,10.9,3.6,13.7,3.6c4.9,2.8,7.2-3,10.7-3.4c1.5-2.4-18.1-3.6-21.3-3.6c0.9-2.8,7.7-11.7,10.4-14.8
					c1-2.4,10.3,15.5,12.6,17C134.5,110.6,121.7,93.6,119.7,88.8z M72.8,65.1c-1.1-0.5-1.1-0.5-1.3-0.7
					C73.4,62.4,76.5,64.5,72.8,65.1z"/>
			</g>
			<g>
				<g>
					<path class="st5" d="M12,109.5c1.3-0.8,1.9,0.2,2.1-1.6c-1.2,0-2,0.2-2.2,1.4c-4.5,0-4.1,1.7-2.4-5.2
						C11.4,101,20.3,77,25.7,81.6c0.5,1.2,6.2,2.2,7.1,6.4c2.8,6.2,8.7,18.1,6.4,24.9c-1,0-3.5-6.8-4.7-4.2c-2.1,0-6-14.6-8.1-16.7
						c-0.9-4.5-2.7,5.9-4.8,8c-2.9,5.5-7.5,9.1,1.5,9.4c0.6,0.2,7.9,1.1,3.2,1.6c-4.3,0,2.1,1.4,2,2.3
						C25.2,113.3,10.9,115.4,12,109.5z"/>
					<g>
						<g>
							<path class="st5" d="M117.8,86.9c-2.6-1.6-1.1-7.7-1.4-7.4c-6.8-0.6,1.3-2.2,3.1-3.9c9-2.2-11-18.8-9.6-6
								c-0.3,0.9-0.4,1.9-0.5,2.9c-2.9,2.9-16.3-3.6-19.5-5.2c-2.1-1.5-17.4-5.4-10.3-5.4c5.8-2.5-9.6-15.8-12.2-5.8
								c-5,2,1.8,5.8,1.8,6.9c-8.1,0.8-18.3,3.1-25.4,7.6c-2,0.5-14.6,6.8-14.6,1.7c3.4-2.7,4.4-4.7-0.3-8.3
								c-9.4-3.9-14.7,15.8-4,15.8c1.2,1.9,10,2.9,10,0.2c-0.6-0.6-1.1-0.9-1.6-1c-2.8,1.6-2-0.6,0,0c0.2-0.1,0.4-0.3,0.7-0.4
								c5.4-1,31.6-13.9,34.3-11.3c-1.9,1.9-1.4,26.9-2.5,31.2c0,3.6-1.5,14.1,1.2,16.8c0.3,1.8-8.3,2.4-8.3,5.9
								c4.8,3.2-9.4,6-10.3,7.7c0.8,2.3-3.2,6-5.5,6c-4.6,4.6,10.6,4.8,12.8,4.6c10.7-5.3,27.3,1.6,37.4-3.5
								c4.1-0.7-6.1-5.2-0.6-5.7C101,121,78,129,78,124.8c0.6,0,2.1,0,2.5-0.3c0.8-7.6-2.5-9.1-9.7-9.1c0.4-3.1,3.4,1.1,4.9-3.5
								c-1.4-5.1-0.3-27.9-1.1-28.8c0.2-2.3-0.5-19.2,2.8-15.8c10.5,1.5,19.1,10,30.5,10c4.5,0.8-0.9,1.3-1.1,4.2
								c-4.4,6-9.5,15.7-11.1,23.1c-0.8,1.2-2.3,9.2-0.2,5.8c0.2-0.1,10.9,3.6,13.7,3.6c4.9,2.8,7.2-3,10.7-3.4
								c1.5-2.4-18.1-3.6-21.3-3.6c0.9-2.8,7.7-11.7,10.4-14.8c1-2.4,10.3,15.5,12.6,17C132.6,108.6,119.7,91.7,117.8,86.9z
								 M70.9,63.1c-1.1-0.5-1.1-0.5-1.3-0.7C71.5,60.5,74.5,62.6,70.9,63.1z"/>
						</g>
					</g>
				</g>
			</g>
		</g>
	</g>
	<g>
		<g>
			<path class="st6" d="M25.2,46.3c-3.4-0.2-6.4-0.2-9.6-0.1c-0.3,0-0.4,0-0.5-0.3c0-0.2-0.2-1.3-0.1-1.5c1.9-0.2,2.9-0.7,3.2-2.8
				c0.4-3.4,0.5-7.5,0.7-12.2L19.4,18c0-1.8-1-2.2-4-2.6c0-0.2,0.2-0.8,0.5-1.2c0.1-0.1,0.1-0.3,0.4-0.3c0.6,0,3.7,0.1,5.2,0.1
				c1.2,0,2.5,0,3.2,0c0.1,1.1,0.5,2.1,0.8,2.7c2.2,4.7,7.2,13.2,10.6,19.2c0.2,0.3,0.4,0.4,0.7,0c3.1-6.1,7.2-14,9.5-19.2
				c0.2-0.5,0.4-1.6,0.5-2.6c3.9,0,8.2-0.1,9.4-0.1c0,0.2,0,1.4,0,1.8c-2.6,0.3-3.2,0.5-3.2,2c-0.1,2.1-0.1,4.9,0,11.3
				c0.1,4.5,0,10,0.1,11.3c0.3,3.4,0.2,3.6,3.3,4.2c0.1,0,0.2,0.8,0.2,1.3c0,0.3-0.1,0.4-0.3,0.4h-5.2c-1.3,0-5,0.1-7.1,0.3v-1.2
				c0-0.4,0.1-0.6,0.3-0.7c2-0.5,2.1-0.6,2.3-2.4c0.1-1.3,0.1-4.2,0.5-21.5c0-0.5-0.4-0.3-0.5,0c-0.5,0.8-5.4,11.3-7.6,16
				c-2.4,5.1-3.2,7.2-3.5,7.7C35.2,45.6,35,46,34.3,46c-0.2,0-0.4-0.1-0.6-0.5c-0.3-0.4-1.5-2.8-2.8-5.7c-4.5-9.5-7.6-15.5-9.5-19.5
				c0,4.7-0.1,11.5,0,16.7c0,3,0.1,5,0.2,5.9c0.3,0.9,0.8,1.3,2.6,1.6c0.5,0.1,0.8,0.2,0.8,0.4L25.2,46.3z"/>
		</g>
		<g>
			<path class="st6" d="M61.7,14.4c0-0.3,0.2-0.4,0.5-0.4c2.2,0,4.6-0.1,6.8-0.2c3.1-0.2,4.3-0.2,6.2-0.2c3.4,0,6.3,0.3,9.4,2.4
				c2,1.3,3.5,3.9,3.5,6.1c0,4.4-3.3,6.2-5.1,7.3c-0.2,0.1-0.3,0.6-0.2,1c0.3,1.3,1.5,4.2,3.3,7.1c2,3.3,5.1,6.6,8.1,7.8
				c0.6,0.2,0.6,0.6,0.4,1.4c0,0.5-0.4,0.6-0.6,0.6c-4.6-0.2-8.3-1.4-11.5-4.6c-2-2.1-3.4-4.8-4.6-7.7c-0.8-1.7-1.5-2.8-4-2.8
				c-0.8,0-1.3,0-1.8,0.1c-0.2,0-0.4,0.5-0.4,0.9c0,4.3,0.1,6.9,0.1,8.8c0,0.9,0.2,1.1,0.4,1.3c0.5,0.4,2.8,0.6,4,1
				c0.1,0.2,0,1.5-0.2,1.7c0,0.1-0.3,0.1-0.8,0.1s-5.7,0-8.3,0c-1.7,0-2.7,0.1-3.9,0.1c-0.5,0-0.7,0-0.7-0.1
				c-0.1-0.4-0.3-1.2-0.2-1.6c1-0.2,2.3-0.6,2.7-1c0.6-0.7,0.7-4,0.7-10.4v-6.2c0-2.9-0.1-6.5-0.1-8.1c0-1.9-0.2-1.9-3.4-2.8
				L61.7,14.4z M75.2,15.5c-1,0-1.4,0.1-2.3,0.4c-0.5,0.2-0.8,0.5-0.9,1c-0.2,1.5-0.2,3.6-0.3,7.9c0,5,0,5.1,0.3,5.2
				s1.2,0.1,2.1,0.1c2.2,0,4.1-0.6,5.3-2.1c0.9-1.2,1.5-3.1,1.5-5.3C81.1,18.3,78.2,15.5,75.2,15.5z"/>
		</g>
		<g>
			<path class="st6" d="M99.1,47c-0.1-0.1-0.2-0.5-0.3-1.9c-0.1-2.6-0.4-5-0.8-8c0-0.3,0-0.4,0.2-0.4c0.3,0,0.7-0.1,0.9-0.1
				c0.3,0,0.5,0.1,0.7,0.5c0.3,0.7,0.6,1.7,1.4,2.9c1.9,2.6,5.4,4.9,8.1,4.9c3.5,0,6.3-2.4,6.3-6c0-1.5-0.9-3.2-2.5-4.2
				c-0.8-0.5-1.9-1.3-4.7-2.5c-3.5-1.5-5.8-2.8-7.6-5c-1-1.1-1.8-3-1.8-5.5c0-3.4,2-5.6,4.3-6.9c1.2-0.7,4.2-1.6,7.7-1.6
				c1.4,0,3.4,0.2,4.3,0.3c0.5,0.1,1,0.1,1.6,0.1c0.5,0,0.9-0.2,1.2-1c0.6,0,1.5,0,1.7,0c-0.1,2.6,0,5.1,0.5,8.2
				c0.1,0.4,0,0.6-0.2,0.7c-0.5,0.3-0.7,0.5-1.2,0.7c-0.1,0-0.3,0-0.4-0.4c-0.8-2.3-1.5-3.7-3.1-4.9c-1.2-1-3.5-1.8-5.5-1.8
				c-2.6,0-4.7,2.4-4.7,4.7c0,1.4,0.4,2.6,1.4,3.5c1.1,1.1,2.2,1.9,5,3.1c3.4,1.4,6,2.7,7.6,4.2c2,2,2.8,3.8,2.8,6.5
				c0,3.7-2,6.3-4.7,7.7c-2.6,1.4-6.9,1.9-8.7,1.9c-1.9,0-4.3-0.3-6-0.7c-0.4-0.1-0.6-0.1-0.9,0c-0.3,0.1-0.5,0.4-0.8,0.7
				c-0.3,0.2-0.6,0.3-1,0.3C99.5,47.2,99.3,47.2,99.1,47z"/>
		</g>
	</g>
	<g>
		<path class="st6" d="M127,129c2-0.7,3.2-1.2,5.4-2c2-0.8,5.7-2.3,6.5-2.7c1.2-0.6,1.8-0.9,2.1-2.2c0,0,0.7,0.1,0.7,0.3
			c0,2.3,0,2.7,0,3.5c0,0.7,0.1,1.7,0.1,2c0,0.1,0,0.1-0.1,0.2c-0.1,0-0.6,0.2-0.6,0.2c-0.2-0.9-0.4-1.1-0.8-1.1
			c-0.5,0-2.7,0.8-2.9,1c-0.4,0.2-0.6,0.4-0.6,0.5c0,0.8,0,3.3,0.1,4.3c0,0.4,0.2,0.5,0.6,0.7c0.6,0.2,1.8,0.8,2.5,0.8
			c0.6,0,0.8-0.3,1-1.4c0-0.2,0.7,0.1,0.8,0.2c0,1.4,0,2.7,0,3.2c0,0.4,0,0.7,0,0.8c0,0.1,0,0.1-0.1,0.2c-0.1,0.1-0.6,0.2-0.6,0.1
			c-0.3-1.2-1.3-1.5-2.4-2c-1.1-0.5-7.2-3.2-10.1-4.4c-0.5-0.2-1.1-0.4-1.3-0.5c-0.2,0-0.3-0.1-0.3-0.2c-0.1-0.2-0.2-0.7-0.2-1
			C126.6,129.2,126.7,129.2,127,129z M135.6,131c0-0.7,0-1.1,0-1.7c0-0.2-0.2-0.4-0.3-0.4c-2.5,0.8-3.8,1.3-4.7,1.7
			c-0.1,0.1-0.2,0.2-0.1,0.2c1.7,0.8,2.5,1.1,4.8,2c0.1,0,0.3-0.2,0.3-0.5C135.6,132.1,135.6,131.7,135.6,131z"/>
		<path class="st6" d="M142.2,120.5c0,0-0.2,0.1-0.9,0.1c-1.2,0-2.3,0.2-3.7,0.4c-0.2,0-0.2,0-0.2-0.1c0-0.1,0-0.3,0-0.4
			c0-0.1,0-0.2,0.2-0.3c0.3-0.1,0.8-0.3,1.3-0.7c1.2-0.9,2.2-2.5,2.2-3.7c0-1.6-1.1-2.9-2.7-2.9c-0.7,0-1.5,0.4-1.9,1.1
			c-0.2,0.4-0.6,0.9-1.1,2.1c-0.7,1.6-1.3,2.7-2.3,3.5c-0.5,0.5-1.4,0.8-2.5,0.8c-1.5,0-2.6-0.9-3.2-2c-0.3-0.6-0.7-1.9-0.7-3.5
			c0-0.6,0.1-1.6,0.1-2c0-0.2,0-0.5,0.1-0.7c0-0.2-0.1-0.4-0.5-0.5c0-0.3,0-0.7,0-0.8c1.2,0.1,2.3,0,3.7-0.2c0.2,0,0.3,0,0.3,0.1
			c0.1,0.2,0.2,0.3,0.3,0.5c0,0,0,0.2-0.2,0.2c-1,0.4-1.7,0.7-2.2,1.4c-0.5,0.6-0.8,1.6-0.8,2.5c0,1.2,1.1,2.1,2.2,2.1
			c0.7,0,1.2-0.2,1.6-0.6c0.5-0.5,0.9-1,1.4-2.3c0.7-1.5,1.2-2.7,1.9-3.5c0.9-0.9,1.7-1.3,3-1.3c1.7,0,2.9,0.9,3.5,2.1
			c0.6,1.2,0.9,3.2,0.9,4c0,0.9-0.1,2-0.3,2.7c0,0.2,0,0.3,0,0.4c0.1,0.1,0.2,0.2,0.3,0.4c0.1,0.2,0.1,0.3,0.1,0.5
			C142.2,120.3,142.2,120.4,142.2,120.5z"/>
		<path class="st6" d="M142.2,107.8c0,0-0.2,0.1-0.9,0.1c-1.2,0-2.3,0.2-3.7,0.4c-0.2,0-0.2,0-0.2-0.1c0-0.1,0-0.3,0-0.4
			c0-0.1,0-0.2,0.2-0.3c0.3-0.1,0.8-0.3,1.3-0.7c1.2-0.9,2.2-2.5,2.2-3.7c0-1.6-1.1-2.9-2.7-2.9c-0.7,0-1.5,0.4-1.9,1.1
			c-0.2,0.4-0.6,0.9-1.1,2.1c-0.7,1.6-1.3,2.7-2.3,3.5c-0.5,0.5-1.4,0.8-2.5,0.8c-1.5,0-2.6-0.9-3.2-2c-0.3-0.6-0.7-1.9-0.7-3.5
			c0-0.6,0.1-1.6,0.1-2c0-0.2,0-0.5,0.1-0.7c0-0.2-0.1-0.4-0.5-0.5c0-0.3,0-0.7,0-0.8c1.2,0.1,2.3,0,3.7-0.2c0.2,0,0.3,0,0.3,0.1
			c0.1,0.2,0.2,0.3,0.3,0.5c0,0,0,0.2-0.2,0.2c-1,0.4-1.7,0.7-2.2,1.4c-0.5,0.6-0.8,1.6-0.8,2.5c0,1.2,1.1,2.1,2.2,2.1
			c0.7,0,1.2-0.2,1.6-0.6c0.5-0.5,0.9-1,1.4-2.3c0.7-1.5,1.2-2.7,1.9-3.5c0.9-0.9,1.7-1.3,3-1.3c1.7,0,2.9,0.9,3.5,2.1
			c0.6,1.2,0.9,3.2,0.9,4c0,0.9-0.1,2-0.3,2.7c0,0.2,0,0.3,0,0.4c0.1,0.1,0.2,0.2,0.3,0.4c0.1,0.2,0.1,0.3,0.1,0.5
			C142.2,107.6,142.2,107.6,142.2,107.8z"/>
		<path class="st6" d="M133.8,89.8c0-1,0-1.6,0-2c-0.1-1.2-0.3-1.4-1.5-1.9c-0.1-0.1-0.2-0.6-0.1-0.9c0.6,0.1,1.7,0.2,2.5,0.2
			c0.9,0,1.3,0,2.1-0.1c0,0.1,0.1,0.3,0.1,0.5c0,0.2,0,0.3-0.1,0.4c-0.2,0.1-0.7,0.2-1,0.4c-0.5,0.2-0.8,0.5-0.8,1.3
			c0,0.6,0,1.1,0,2.1c0,0.7,0,0.9,0,1c0,0.1,0.1,0.2,0.2,0.2c0.2,0.1,1.3,0.2,3.1,0.2c1.4,0,1.8,0,2-0.2c0.5-0.3,0.5-1.6,0.5-2.5
			c0-2.2-0.4-3.6-3-4.4c-0.1-0.1,0-0.6,0-0.7c0-0.1,0-0.1,0.2-0.1c1.3,0,3,0.5,3.6,0.8c0.1,0.1,0.2,0.1,0.2,0.2c0,0.2,0,0.3,0,1
			c0,0.6,0,2.2,0,4.1c0,2.3,0.1,4.4,0.1,6.1c0,0.1-0.5,0.1-0.6,0c-0.1,0-0.1,0-0.2-0.1c-0.2-1.1-0.3-1.3-0.8-1.3
			c-0.3,0-1.9-0.2-4-0.2h-5.2c-2,0-2.5,0.1-2.7,0.2c-0.2,0-0.4,0-0.4,0.3s-0.1,0.6-0.3,1.3c0,0.1,0,0.1-0.1,0.1l-0.5-0.1
			c-0.1,0-0.1,0-0.1-0.1v-0.7c0-0.7,0.1-1.8,0.1-3.5v-1.9c0-1.9-0.1-3.2-0.1-4.6c0-0.3,0-0.5,0.1-0.5c0.1-0.1,0.2-0.2,0.6-0.1
			c1.3,0.2,2.3,0.2,3,0.2c0,0.8,0,0.8-0.2,0.8c-1.8,0.6-2.4,1.1-2.4,2.2v1c0,1.3,0,1.9,0.1,2.2c0,0.4,0.5,0.4,0.8,0.4
			c1.6,0,3.1,0,4.6,0c0.3,0,0.5-0.1,0.5-0.2V89.8z"/>
		<path class="st6" d="M142.2,81.2c0,0-0.2,0.1-0.9,0.1c-1.2,0-2.3,0.2-3.7,0.4c-0.2,0-0.2,0-0.2-0.1c0-0.1,0-0.3,0-0.4
			c0-0.1,0-0.2,0.2-0.3c0.3-0.1,0.8-0.3,1.3-0.7c1.2-0.9,2.2-2.5,2.2-3.7c0-1.6-1.1-2.9-2.7-2.9c-0.7,0-1.5,0.4-1.9,1.1
			c-0.2,0.4-0.6,0.9-1.1,2.1c-0.7,1.6-1.3,2.7-2.3,3.5c-0.5,0.5-1.4,0.8-2.5,0.8c-1.5,0-2.6-0.9-3.2-2c-0.3-0.6-0.7-1.9-0.7-3.5
			c0-0.6,0.1-1.6,0.1-2c0-0.2,0-0.5,0.1-0.7c0-0.2-0.1-0.4-0.5-0.5c0-0.3,0-0.7,0-0.8c1.2,0.1,2.3,0,3.7-0.2c0.2,0,0.3,0,0.3,0.1
			c0.1,0.2,0.2,0.3,0.3,0.5c0,0,0,0.2-0.2,0.2c-1,0.4-1.7,0.7-2.2,1.4c-0.5,0.6-0.8,1.6-0.8,2.5c0,1.2,1.1,2.1,2.2,2.1
			c0.7,0,1.2-0.2,1.6-0.6c0.5-0.5,0.9-1,1.4-2.3c0.7-1.5,1.2-2.7,1.9-3.5c0.9-0.9,1.7-1.3,3-1.3c1.7,0,2.9,0.9,3.5,2.1
			c0.6,1.2,0.9,3.2,0.9,4c0,0.9-0.1,2-0.3,2.7c0,0.2,0,0.3,0,0.4c0.1,0.1,0.2,0.2,0.3,0.4c0.1,0.2,0.1,0.3,0.1,0.5
			C142.2,81,142.2,81.1,142.2,81.2z"/>
		<path class="st6" d="M142.2,68.5c0,0-0.2,0.1-0.9,0.1c-1.2,0-2.3,0.2-3.7,0.4c-0.2,0-0.2,0-0.2-0.1c0-0.1,0-0.3,0-0.4
			c0-0.1,0-0.2,0.2-0.3c0.3-0.1,0.8-0.3,1.3-0.7c1.2-0.9,2.2-2.5,2.2-3.7c0-1.6-1.1-2.9-2.7-2.9c-0.7,0-1.5,0.4-1.9,1.1
			c-0.2,0.4-0.6,0.9-1.1,2.1c-0.7,1.6-1.3,2.7-2.3,3.5c-0.5,0.5-1.4,0.8-2.5,0.8c-1.5,0-2.6-0.9-3.2-2c-0.3-0.6-0.7-1.9-0.7-3.5
			c0-0.6,0.1-1.6,0.1-2c0-0.2,0-0.5,0.1-0.7c0-0.2-0.1-0.4-0.5-0.5c0-0.3,0-0.7,0-0.8c1.2,0.1,2.3,0,3.7-0.2c0.2,0,0.3,0,0.3,0.1
			c0.1,0.2,0.2,0.3,0.3,0.5c0,0,0,0.2-0.2,0.2c-1,0.4-1.7,0.7-2.2,1.4c-0.5,0.6-0.8,1.6-0.8,2.5c0,1.2,1.1,2.1,2.2,2.1
			c0.7,0,1.2-0.2,1.6-0.6c0.5-0.5,0.9-1,1.4-2.3c0.7-1.5,1.2-2.7,1.9-3.5c0.9-0.9,1.7-1.3,3-1.3c1.7,0,2.9,0.9,3.5,2.1
			c0.6,1.2,0.9,3.2,0.9,4c0,0.9-0.1,2-0.3,2.7c0,0.2,0,0.3,0,0.4c0.1,0.1,0.2,0.2,0.3,0.4c0.1,0.2,0.1,0.3,0.1,0.5
			C142.2,68.3,142.2,68.4,142.2,68.5z"/>
		<path class="st6" d="M134,40.1c2.8,0,4.9,1.2,6.1,2.7c1.5,1.7,2,3.6,2,4.8c0,2.6-1,5.2-2.8,6.8c-1.3,1.1-3.3,1.9-5.1,1.9
			c-2,0-3.9-0.8-5.4-2.4c-1.4-1.5-2.2-3.7-2.2-5.8C126.6,43.8,129.9,40.1,134,40.1z M129,51.6c1.2,1,2.8,1.3,4.9,1.3
			c2.2,0,4.1-0.7,5.3-1.8c1.5-1.3,2-2.5,2-3.9c0-1.8-2.2-3.9-6.2-3.9c-2.1,0-4.2,0.4-5.8,1.7c-0.8,0.7-1.7,1.9-1.7,3.4
			C127.5,49.7,128.1,50.8,129,51.6z"/>
		<path class="st6" d="M127.3,38.3c-0.1,0-0.2-0.1-0.2-0.2c0-1,0-2.1-0.1-3.1c-0.1-1.4-0.1-2-0.1-2.8c0-1.5,0.2-2.9,1.1-4.3
			c0.6-0.9,1.8-1.6,2.8-1.6c2,0,2.8,1.5,3.3,2.3c0.1,0.1,0.3,0.2,0.5,0.1c0.6-0.2,1.9-0.7,3.2-1.5c1.5-0.9,3-2.3,3.6-3.7
			c0.1-0.3,0.3-0.3,0.6-0.2c0.2,0,0.3,0.2,0.3,0.3c-0.1,2.1-0.6,3.8-2.1,5.2c-1,0.9-2.2,1.5-3.5,2.1c-0.8,0.4-1.3,0.7-1.3,1.8
			c0,0.4,0,0.6,0.1,0.8c0,0.1,0.2,0.2,0.4,0.2c2,0,3.2,0,4-0.1c0.4,0,0.5-0.1,0.6-0.2c0.2-0.2,0.3-1.3,0.5-1.8
			c0.1-0.1,0.7,0,0.8,0.1c0,0,0,0.1,0,0.4s0,2.6,0,3.8c0,0.8,0.1,1.2,0.1,1.8c0,0.2,0,0.3-0.1,0.3c-0.2,0.1-0.6,0.2-0.7,0.1
			c-0.1-0.5-0.3-1-0.5-1.2c-0.3-0.3-1.8-0.3-4.7-0.3h-2.8c-1.3,0-3,0-3.7,0.1c-0.9,0-0.9,0.1-1.3,1.5L127.3,38.3z M127.8,32.2
			c0,0.5,0.1,0.7,0.2,1c0.1,0.2,0.2,0.4,0.5,0.4c0.7,0.1,1.6,0.1,3.6,0.1c2.3,0,2.3,0,2.4-0.2s0-0.5,0-1c0-1-0.3-1.9-1-2.4
			c-0.6-0.4-1.4-0.7-2.4-0.7C129,29.5,127.8,30.8,127.8,32.2z"/>
		<path class="st6" d="M142.2,22.3c0,0-0.2,0.1-0.9,0.1c-1.2,0-2.3,0.2-3.7,0.4c-0.2,0-0.2,0-0.2-0.1c0-0.1,0-0.3,0-0.4
			c0-0.1,0-0.2,0.2-0.3c0.3-0.1,0.8-0.3,1.3-0.7c1.2-0.9,2.2-2.5,2.2-3.7c0-1.6-1.1-2.9-2.7-2.9c-0.7,0-1.5,0.4-1.9,1.1
			c-0.2,0.4-0.6,0.9-1.1,2.1c-0.7,1.6-1.3,2.7-2.3,3.5c-0.5,0.5-1.4,0.8-2.5,0.8c-1.5,0-2.6-0.9-3.2-2c-0.3-0.6-0.7-1.9-0.7-3.5
			c0-0.6,0.1-1.6,0.1-2c0-0.2,0-0.5,0.1-0.7c0-0.2-0.1-0.4-0.5-0.5c0-0.3,0-0.7,0-0.8c1.2,0.1,2.3,0,3.7-0.2c0.2,0,0.3,0,0.3,0.1
			c0.1,0.2,0.2,0.3,0.3,0.5c0,0,0,0.2-0.2,0.2c-1,0.4-1.7,0.7-2.2,1.4c-0.5,0.6-0.8,1.6-0.8,2.5c0,1.2,1.1,2.1,2.2,2.1
			c0.7,0,1.2-0.2,1.6-0.6c0.5-0.5,0.9-1,1.4-2.3c0.7-1.5,1.2-2.7,1.9-3.5c0.9-0.9,1.7-1.3,3-1.3c1.7,0,2.9,0.9,3.5,2.1
			c0.6,1.2,0.9,3.2,0.9,4c0,0.9-0.1,2-0.3,2.7c0,0.2,0,0.3,0,0.4c0.1,0.1,0.2,0.2,0.3,0.4c0.1,0.2,0.1,0.3,0.1,0.5
			C142.2,22.1,142.2,22.2,142.2,22.3z"/>
	</g>
</g>
</svg>
